<?xml version="1.0" encoding="UTF-8" standalone="no"?>
<!-- Created with Inkscape (http://www.inkscape.org/) -->

<svg
   version="1.1"
   id="svg1"
   width="502.70667"
   height="382.14667"
   viewBox="0 0 502.70667 382.14667"
   sodipodi:docname="ywta_2a21_170323.eps"
   xmlns:inkscape="http://www.inkscape.org/namespaces/inkscape"
   xmlns:sodipodi="http://sodipodi.sourceforge.net/DTD/sodipodi-0.dtd"
   xmlns="http://www.w3.org/2000/svg"
   xmlns:svg="http://www.w3.org/2000/svg">
  <defs
     id="defs1" />
  <sodipodi:namedview
     id="namedview1"
     pagecolor="#ffffff"
     bordercolor="#000000"
     borderopacity="0.25"
     inkscape:showpageshadow="2"
     inkscape:pageopacity="0.0"
     inkscape:pagecheckerboard="0"
     inkscape:deskcolor="#d1d1d1">
    <inkscape:page
       x="0"
       y="0"
       inkscape:label="1"
       id="page1"
       width="502.70667"
       height="382.14667"
       margin="0"
       bleed="0" />
  </sodipodi:namedview>
  <g
     id="g1"
     inkscape:groupmode="layer"
     inkscape:label="1">
    <g
       id="group-R5">
      <path
         id="path2"
         d="m 3581.75,1771.75 c -113.58,3.61 -227.17,49.07 -309.02,128.48 -40.89,39.68 -74.21,90.4 -88.15,146.05 -15.74,62.38 1.38,124.71 34.02,178.45 28.77,47.38 70.07,92.73 111.61,128.86 21.37,18.56 58.93,42.36 63.62,72.57 4.5,28.65 -44.98,7.92 -53.83,3.72 -34.31,-16.44 -66.11,-39.08 -97.57,-60.44 -124.53,-84.31 -233.24,-186 -319.86,-309.46 -48.76,-69.41 -88.4,-144.91 -120.84,-223.15 -30.62,-74.05 -67.07,-146.41 -83.43,-224.66 -1.6,34.4 -4.77,68.68 -10.97,102.78 -12.62,68.74 -39.2,135.67 -68.18,198.97 -12.56,27.46 -26.44,54.29 -38.73,81.81 -0.57,1.27 -1.14,2.41 -1.76,3.65 v 0.27 c -1.71,12.62 -10.53,23.92 -18.5,34.94 -1.94,3.11 -4.04,6.04 -6.17,8.98 -1.11,1.77 -2.07,3.52 -3.09,5.29 l -1.62,1.3 c -1.85,2.68 -3.68,5.37 -5.27,8.23 l -1.06,1.04 c 10.26,19.85 23.96,37.59 42.66,48.58 10.07,5.76 9.23,21.9 -3.81,14.81 -19.15,-11.59 -39.77,-21 -61.2,-28.32 l -0.54,1.02 -1.5,2.16 c -0.87,4 -2.81,7.92 -5.54,10.81 -0.84,0.91 -1.92,1.35 -3.02,1.45 -51.67,84.86 -138.63,150.46 -217.95,207.4 -41.27,29.52 -85.42,55.09 -128.97,80.92 -19,11.27 -44.48,28.64 -67.34,29.24 l -1.45,-0.35 c -1.25,6.43 -2.39,12.85 -3.59,19.32 -5.84,31.66 2.91,65.21 0.15,97.25 -0.89,10.34 -17.45,-0.49 -19.16,-5.48 -10.48,-31.26 -32.57,-55.61 -57.42,-76.86 -22.51,19.61 -66.65,24.14 -92.52,30.67 -51.25,12.97 -102.02,27.83 -153.47,40.39 -94.8,23.07 -192.78,32.46 -290.24,31.41 l -1.05,1.11 c -26.47,30.24 -43.27,67.13 -56.44,104.71 -3.26,9.26 -15.52,-0.91 -16.69,-6.6 -6.83,-32.01 -15.5,-64.19 -25.95,-95.2 -1.32,-3.98 -2.73,-8.05 -4.26,-12.26 -0.6,0.46 -1.56,0.68 -2.97,0.46 -100.88,-16.21 -197.62,-45.02 -290.96,-86.11 -11.11,-4.82 -114.548,-53.39 -128.65,-81.68 -29.375,11.55 -63.066,30.47 -78.047,59.32 -1.632,5.57 -3.652,11.04 -6.152,16.46 -4.23,8.8 -19.152,-0.62 -17.246,-8.67 5.859,-35.61 7.547,-66.18 -3.184,-101.18 -8.242,-26.69 -22.48,-51.44 -41.152,-72.06 h -2.109 c -0.742,0.09 -1.465,-1.2 -0.547,-1.14 l 1.863,0.22 c -5.223,-5.76 -10.984,-11.13 -16.933,-16.13 -20.34,6.82 -40.684,11.7 -58.622,14.81 -98.378,17.32 -192.402,-42.37 -263.605,-108.2 0,1.75 -1.922,2.86 -4.266,0.98 -27.609,-21.63 -54.824,-42.01 -91.113,-42.64 -19.16,-0.31 -50.578,0.68 -45.859,26.09 0.761,4.2 -5.547,1.89 -6.817,0.39 -22.238,-24.43 17.664,-34.07 35.313,-35.33 39.121,-2.91 69.14,13.23 97.859,36.35 -4.344,-4.23 -8.582,-8.48 -12.762,-12.77 -81.437,-83.44 -137.304,-195.12 -146.757,-311.97 -1.231,-15.5 -1.504,-30.66 -0.489,-45.44 C 179.84,1627.25 156.48,1413.36 198.121,1215.9 c 0.067,-1.4 0.067,-2.82 0.117,-4.18 1.367,-40.81 12.09,-88.03 36.582,-123.52 60.528,-165.411 167.676,-313.751 309.93,-418.052 205.871,-150.968 471.96,-212.769 720.09,-249.957 118.36,-17.812 238.65,-27.14 358.87,-26.671 50.83,-47.09 37.64,-133.7 22.35,-194.11 -2.36,-9.269 9.27,-7.64 13.37,-2.699 53.02,63.871 72.02,185.418 162.5,206.59 99.02,9.558 197.21,26.41 293.39,51.199 2.3,0.539 4.61,1.211 6.8,1.852 71.99,-10.512 132.44,-46.5 175.96,-108.762 4.77,-6.84 16.54,1.808 18.22,7.269 8.78,29.301 5.48,61.629 5.6,91.762 0.18,30.359 -1.55,78.668 30.42,94.231 4.89,2.308 7.31,6.789 7.2,10.339 94.28,51.329 180.78,116.079 259.97,191.141 l 1.04,0.809 c 30.96,30.55 62.25,49.808 105.26,58.578 5.9,1.179 15.19,13.019 5.57,15.652 -41.38,11.238 -110.41,32.899 -104.35,88 0.2,1.59 -0.54,2.07 -1.59,2.02 l 1.02,2.578 c 35.16,93.271 57.27,191.561 71.48,290.511 22.11,3.26 47.89,-11.38 66.05,-21.07 25.78,-13.85 50.2,-26.81 72.24,-46.46 46.27,-40.99 81.7,-99.28 104.05,-156.36 45.08,-114.692 33.42,-242.68 44.89,-363.551 0.49,-5.289 0.97,-10.57 1.62,-15.809 1.62,-13.429 26.89,0.559 25.42,12.762 -15.8,135.977 36.12,280.227 144.85,365.418 40.85,32.08 86.65,58.91 135.29,77.41 30.57,11.58 62.55,23.16 95.27,26.24 14.36,1.43 30.33,2.48 46.18,2.31 15.89,-0.1 31.71,-1.28 45.75,-4.39 -6.09,4.08 -21.53,21.76 -28.15,22.58 l -0.66,0.06 c -111.34,59.96 -179.44,195.76 -188.66,318.84 -13.55,182.01 138.76,313.95 310.73,328.25 12.68,1.01 28.68,24.41 8.96,25.04"
         style="fill:#040606;fill-opacity:1;fill-rule:nonzero;stroke:none"
         transform="matrix(0.13333333,0,0,-0.13333333,0,382.14667)" />
      <path
         id="path3"
         d="m 2693.03,1314.65 c -2.75,-34.46 -6.68,-68.72 -11.6,-102.72 -2.03,-3.63 -2.72,-7.88 -1.61,-10.82 -14.18,-94.02 -36.39,-186.34 -66.81,-277.149 -39.38,-117.41 -115.53,-218.539 -194.25,-312.41 -2.87,-3.461 -3.5,-6.41 -2.81,-8.582 -24.51,-15.61 -49.6,-30.27 -75.5,-43.789 -75.7,-39.61 -156.35,-67.731 -239.01,-88.52 -3.42,0.031 -6.75,0.129 -10.19,0.121 -2.46,-0.07 -5.06,-1.992 -6.68,-4.25 -44.15,-10.57 -88.72,-19.152 -133.4,-26.32 l -1.89,-0.301 c -1.86,54.231 42.82,148.602 104.92,150.18 10.26,0.269 21.17,19.949 6.78,19.109 -68.6,-3.91 -118.14,-88.418 -124.08,-154.539 -30.84,33.32 -60.03,60.039 -105.14,76.102 -21.58,7.679 -69.56,23.707 -81.67,-6.473 -1.37,-3.41 4.05,-2.379 5.19,-0.309 13.73,25.711 82.32,-6.82 98.96,-15.031 32.19,-15.789 55.63,-44.937 78.88,-71.527 -279.59,-42.211 -567.46,-21.723 -843.28,35.59 -245.754,51.07 -494.531,139.789 -666.992,330.347 -67.09,74.012 -121.621,161.481 -160.684,255.461 0.879,-0.75 1.738,-1.48 2.676,-2.17 57.918,-42.62 127.898,-20.28 180.39,18.99 28.516,21.33 52.95,48.25 74.903,76.12 18.476,23.49 42.617,52.07 49.98,81.61 2.481,10.13 -9.972,8.08 -14.453,2.95 -15.597,-17.71 -26.933,-39.22 -40.625,-58.46 -18.058,-25.32 -38.34,-48.9 -60.976,-70.32 -45.938,-43.45 -106.829,-69.73 -165.332,-34.37 -43.086,26.04 -60.168,84.6 -67.715,131.05 -8.242,50.38 -1.641,111.96 45.195,141.57 3.164,1.97 1.543,5.56 -2.012,4.19 -35.449,-14.19 -53.476,-46.77 -61.23,-82.26 -7.16,45.63 -10.723,91.53 -10.352,137.17 1.18,131.72 39.864,261.72 119.492,366.92 4.278,-29.7 14.942,-57.5 36.016,-82.62 31.895,-38.06 79.727,-60.07 126.719,-72.9 52.988,-14.52 104.551,-7.03 152.254,19.75 46.808,26.24 84.699,65.31 127.277,97.41 5.879,-30.8 15.879,-61.32 30.762,-90.95 22.812,-45.61 55.508,-84.86 100.547,-109.64 43.144,-23.75 96.601,-26.74 144.76,-24.23 -26.03,-24.93 -49.585,-52.6 -70.924,-81.77 -46.395,-63.35 -79.649,-135.31 -76.649,-214.72 0.137,-4.14 6.336,-1.09 6.543,1.84 5.086,72.41 44.238,144.65 84.91,202.99 40.85,58.77 93.35,110.48 155.26,146.64 62.34,36.44 133.7,57.84 205.63,62.96 79.78,5.77 152.16,-25.55 221.93,-59.64 6.32,-3.07 18.85,8 11.51,12.47 -56.47,34.65 -119.47,53.2 -183.6,57.66 31.98,56.77 50.32,119.27 66.06,182.21 7.61,30.39 15.04,60.39 19.32,91.5 2.22,16.45 4.62,33.27 4.02,49.9 -0.45,11.66 -1.47,22.79 -1.05,34.02 5.87,-4.39 12.92,-8.01 21.22,-10.84 26.62,-9.17 61.08,-1.36 81.25,17.72 6.06,5.81 0.31,11.76 -6.56,8.69 -22.21,-10.06 -41.03,-16.38 -65.76,-12.06 -10.27,1.77 -20.14,6.39 -28.35,13.01 0.3,3 -1.49,3.84 -3.93,3.42 -1.49,1.4 -2.84,2.85 -4.17,4.4 -7.91,50.25 -22.8,99.61 -52.11,141.74 -31.66,45.39 -84.33,74.19 -136.28,89.85 -111.66,33.5 -231.37,-7.92 -323.108,-72.46 -9.727,-6.86 -19.18,-14.11 -28.469,-21.68 -7.461,52.2 -56.336,85.13 -107.86,104.41 41.524,34.34 77.469,93.32 78.504,149.87 18.489,-16.79 42.746,-28.84 64.375,-37.9 47.688,-20.11 115.668,-26.99 162.958,-2.27 4.38,2.34 10.73,14.68 1,13.14 -24.97,-4 -48.11,-10.93 -73.68,-11.2 -24.28,-0.26 -49.01,4.35 -71.965,12.33 14.57,17.79 29.955,29.93 51.755,42.29 27.61,15.71 56.62,29.06 85.88,41.47 35.45,14.95 71.18,29.33 108.05,40.56 53.22,16.21 107.99,24.55 162.19,36.41 l 1.81,0.84 c -11.03,-27.52 -27.55,-55.63 -56.5,-63.71 -3.9,-1.08 -6.17,-7.54 -0.57,-6.55 34.29,6.28 53.47,37.29 67.4,66.38 14.57,30.36 21.01,63.17 30.39,95.1 23.71,-71.96 71.84,-125.19 138.71,-164.17 10.22,-6 29.88,13.67 18.32,19.9 -30.79,16.6 -56.38,35.3 -79.91,59.65 88.98,-2.4 178.35,-11.68 265.45,-30.2 48.91,-10.44 97.52,-23.26 145.96,-35.76 18.52,-4.76 37.07,-9 55.62,-13.71 17.95,-4.61 33.36,-12.63 49.63,-19.94 -10.48,-8.44 -21.28,-16.35 -31.76,-24.11 -32.41,-23.98 -78.65,-65.25 -122.05,-55.43 -5.21,1.16 -13.51,-8.33 -6.41,-10.4 45.77,-13.82 96.41,26.23 131.21,51.11 33.9,24.22 70.19,50.82 94.47,85.43 -1.77,-18.59 -4.34,-37.22 -2.58,-55.83 2.85,-30.44 8.9,-59.56 20.95,-87.74 21.76,-50.76 60.36,-93.48 103.7,-126.62 6.87,-5.29 23.53,8.49 16.82,15.15 -36.18,36.32 -71.34,72.97 -95.04,118.86 -9.24,17.93 -14.18,36.46 -18.11,55.49 l 1.86,-0.72 c 5.88,-2.44 11.54,-5.97 17.15,-9 11.81,-6.51 23.25,-13.82 34.71,-20.98 41.32,-25.74 82.32,-52.29 122.43,-79.94 85.89,-59.17 168.7,-122.59 228.4,-209.19 v -0.68 c 0.12,-0.96 0.81,-2.1 1.59,-3.14 0.87,-2.09 1.88,-4.09 3.14,-5.91 -59.75,-17.13 -125.1,-18.01 -184.23,-2.17 -3.77,0.96 -9.76,-5.8 -4.67,-7.69 70.25,-26 152.73,-21.38 223.49,6.1 -16.15,-21.12 -27.39,-46.38 -35.46,-71.96 -13.51,-42.29 -21.22,-94.44 -5.3,-136.96 3.87,-10.33 21.02,0.81 19.15,9.61 -8.11,38.29 -4.52,79.5 4.77,117.2 2.88,11.8 6.62,24.21 11.45,36.39 19.54,-17.67 26.55,-45.73 36.32,-69.48 11.42,-27.7 25.81,-54.24 37.95,-81.76 25.74,-58.75 48.07,-120.12 60.59,-183.15 12.77,-64.29 12.5,-130.31 12.29,-195.53 -0.26,-65.39 -3,-130.61 -8.45,-195.72"
         style="fill:#ffffff;fill-opacity:1;fill-rule:nonzero;stroke:none"
         transform="matrix(0.13333333,0,0,-0.13333333,0,382.14667)" />
      <path
         id="path4"
         d="m 1471.07,2142.68 c -15.41,84.16 -84.65,161.34 -166.04,184.92 -52.01,15.15 -108.26,10.52 -160.7,0.33 -28.48,-5.55 -56.05,-18.7 -80.38,-34.01 -23.8,-14.95 -43.59,-34.7 -67.372,-49.53 -1.652,-0.28 -3.398,-1.05 -5.07,-2.49 l -2.637,-2.29 c -5.332,-4.54 -7.312,-17.68 3.547,-13.42 19.772,7.79 36.332,19.96 53.002,33.03 24.93,19.5 50.81,34.8 81.08,44.57 51.39,16.58 111.57,23.22 164.69,12.17 41.11,-8.56 78.12,-32.6 105.48,-63.94 30.31,-34.69 41.94,-75.59 60.22,-116.47 3.36,-7.46 15.4,0.57 14.18,7.13"
         style="fill:#040606;fill-opacity:1;fill-rule:nonzero;stroke:none"
         transform="matrix(0.13333333,0,0,-0.13333333,0,382.14667)" />
      <path
         id="path5"
         d="m 346.559,1943.7 c 39.296,124.14 132.089,236.35 246.972,297.68 55.262,29.5 113.36,38.37 173.934,23.48 11.133,-2.7 22.277,-6.03 33.223,-9.93 0.675,-2.47 3.351,-3.87 6.789,-2.55 32.148,-12.34 62.265,-30.4 84.804,-56.3 12.586,-14.49 19.707,-31.85 22.149,-50.4 -113.801,-100.12 -185.86,-255.06 -161.653,-403.29 -44.011,-33.22 -84.246,-73.08 -134.382,-97.08 -54.415,-25.88 -115.618,-17.21 -169.805,4.49 -49.61,19.93 -98.34,55.08 -115.988,107.48 -3.399,10.08 -5.692,20.72 -7.079,31.61 2.54,3.67 1.524,6.39 -0.878,7.48 -4.532,49.2 8.035,103.46 21.914,147.33"
         style="fill:#ffffff;fill-opacity:1;fill-rule:nonzero;stroke:none"
         transform="matrix(0.13333333,0,0,-0.13333333,0,382.14667)" />
      <path
         id="path6"
         d="m 917.008,2130.09 c 3.308,-2.12 10.828,2.35 11.074,6.89 v 2.56 c 47.383,39.24 102.128,69.55 160.978,87.16 120.63,36.19 263.38,2.35 327.91,-112.49 19.6,-34.82 28.65,-74.76 34.4,-113.99 0.51,-3.15 2.82,-4.04 5.64,-3.57 -6.77,-24.25 -3.54,-50.38 -6.84,-75.47 -4.13,-32.26 -10.18,-64.39 -18.7,-95.8 -17.29,-63.81 -29.87,-128.68 -61.65,-187.42 l -0.06,-0.14 c -86.49,3.02 -174.42,-19.31 -250.49,-62.43 -31.56,-17.87 -60.17,-39.75 -86.22,-64.34 h -0.09 c -57.222,-0.68 -111.948,11.06 -159.937,43.42 -48.378,32.57 -79.492,88.93 -97.832,142.91 -36.406,107.26 -10,223.67 46.68,318.6 25.438,42.56 57.754,81.22 95.137,114.11"
         style="fill:#ffffff;fill-opacity:1;fill-rule:nonzero;stroke:none"
         transform="matrix(0.13333333,0,0,-0.13333333,0,382.14667)" />
      <path
         id="path7"
         d="m 1728.61,342.922 c -22.22,-34.863 -37.26,-74.84 -59.02,-110.121 11.42,55.051 14.45,118.699 -21.67,160.859 43.34,0.641 86.67,2.57 129.84,5.789 -19.87,-15.289 -36.27,-36.32 -49.15,-56.527"
         style="fill:#ffffff;fill-opacity:1;fill-rule:nonzero;stroke:none"
         transform="matrix(0.13333333,0,0,-0.13333333,0,382.14667)" />
      <path
         id="path8"
         d="m 2301.85,379.012 c -39.23,47.187 -89.7,75.359 -147.57,86.328 56.5,16.98 110.83,38.469 162.8,63.969 -24.43,-38.848 -11.69,-102.707 -15.23,-150.297"
         style="fill:#ffffff;fill-opacity:1;fill-rule:nonzero;stroke:none"
         transform="matrix(0.13333333,0,0,-0.13333333,0,382.14667)" />
      <path
         id="path9"
         d="m 2696.42,809.129 c -12.44,-4.07 -24.7,-9.25 -36.18,-15.641 -4.01,2.602 -11.62,2.043 -16.81,-3.226 -59.1,-60.422 -122.82,-115.821 -191.96,-163.711 66.05,80.879 126.84,166.347 166.93,263.148 -1.4,-44.269 37.88,-66.668 78.02,-80.57"
         style="fill:#ffffff;fill-opacity:1;fill-rule:nonzero;stroke:none"
         transform="matrix(0.13333333,0,0,-0.13333333,0,382.14667)" />
      <path
         id="path10"
         d="m 3233.49,1427.55 c 1.71,-120.22 61.26,-254.06 160.98,-327.63 -90.42,-8.4 -182.35,-57.17 -249.48,-108.498 -69.89,-53.492 -118.57,-129.524 -143.14,-213.012 -3.98,83.59 -12.08,166.531 -49,242.87 -28.8,59.46 -68.94,115.51 -123.36,153.83 -21.91,15.4 -48.2,27.88 -72.89,38.18 -17.98,7.5 -36.96,12.32 -55.69,8.79 1.83,14.01 3.51,27.94 5.13,41.92 8.63,-2.82 20.67,-2.14 27.22,-2.31 22.38,-0.5 43.99,-1.57 66.29,-4.54 33.5,-4.52 66.66,-12.26 99.08,-21.87 33.78,-9.95 65.43,-26.81 99.69,-34.4 5.5,-1.24 19.74,8.3 13.51,14.47 -20.53,20.09 -48.79,28.72 -75.61,37.48 -34.98,11.41 -71.07,19.18 -107.39,24.7 -37.7,5.69 -79.9,8.18 -118.41,4.57 -0.18,1.29 -0.99,2.18 -2.38,2.18 0.97,8.89 1.93,17.8 2.71,26.73 1.16,12.56 2.18,25.25 3.05,37.87 85.96,9.99 173.62,23.44 259.22,6.22 3.8,-0.8 10.67,5.03 6.47,8.41 -30.72,24.88 -89.28,14.53 -125.36,12.03 -46.28,-3.22 -94.65,-5.66 -139.73,-18.28 1.02,14.77 1.83,29.52 2.52,44.22 2.81,0.98 4.85,2.6 6.08,5.22 51.79,39.5 101.72,74.4 162.83,99.32 31.86,12.96 65.28,22.21 98.81,29.2 30.94,6.52 62.97,7.48 93.49,15.47 5.06,1.31 13.21,10.98 4.85,13.62 -30.36,9.45 -66.05,1.04 -96.35,-4.8 -36.39,-7.01 -71.72,-19.14 -106.01,-32.89 -57.07,-22.96 -122.2,-57.65 -162.89,-106.53 0.74,19 1.38,38 1.68,56.97 18.99,28.89 31.77,60.74 47.67,91.29 17.33,33.19 43.91,60.68 70.23,86.74 53.26,52.73 117.84,101.66 189.66,125.21 3.03,0.98 5,6.33 0.45,5.3 -72.92,-16.45 -135.35,-64.65 -188.91,-114.63 -25.65,-23.99 -51.49,-50.26 -71.06,-79.52 -20.14,-30.05 -31.53,-64.9 -47.72,-97.17 0.07,7.12 0.16,14.18 0.16,21.36 0.06,13.46 0.03,26.91 -0.09,40.4 3.2,1.69 6.14,4.58 6.46,7.52 8.46,73.09 37.5,140.96 67.2,207.6 26.83,60.23 51.95,121.09 83.53,179.02 58.92,107.87 135.52,204.86 225.59,288.3 66.03,61.15 141.05,115 218.69,160.66 13.43,7.9 27.49,16.1 42.53,20.22 15.62,4.37 -11.86,-22.2 -15.13,-25.39 -32.79,-31.51 -67.1,-60.31 -97.88,-94.2 -46.21,-50.89 -84.7,-109.61 -96.87,-178.18 -12.86,-72.45 16.51,-143.52 59.25,-200.57 66.86,-89.3 172.55,-145.42 282.15,-165.9 -145.33,-44.12 -263.96,-166.16 -261.83,-327.57"
         style="fill:#ffffff;fill-opacity:1;fill-rule:nonzero;stroke:none"
         transform="matrix(0.13333333,0,0,-0.13333333,0,382.14667)" />
      <path
         id="path11"
         d="m 1854.18,1875.36 c -9.56,0.6 -34.22,-10.13 -39.53,-11.29 -34.98,-7.9 -74.15,-7.98 -107.29,-7.77 -36.06,0.25 -119.71,1.12 -125.07,51.11 -0.48,3.7 -7.08,-0.12 -7.2,-2.83 -1.56,-52.3 74.91,-60.53 112.54,-62.18 31.2,-1.51 66.63,-1.71 100.46,3.15 -20.92,-17.8 -38.75,-40.47 -52.68,-61.01 -21.85,-32.21 -61.44,-109.61 -23.74,-144.28 4.02,-3.75 13.58,1.79 11.72,7.24 -6.83,19.59 -11.39,35.18 -8.63,56.31 6.53,48.9 34.8,97.72 75.04,126.49 3.18,2.29 74.57,44.4 64.38,45.06"
         style="fill:#040606;fill-opacity:1;fill-rule:nonzero;stroke:none"
         transform="matrix(0.13333333,0,0,-0.13333333,0,382.14667)" />
      <path
         id="path12"
         d="m 2154.91,2034.85 c -42.62,-0.17 -85.06,-1.44 -127.53,3.04 -38.06,3.97 -104.08,13.14 -106.07,62.33 -0.03,2.99 -4.25,0.59 -4.55,-1.32 -7.53,-48.78 52.57,-64.65 89.1,-70.98 42.65,-7.46 85.72,-6.67 128.75,-6.25 -38.11,-32.3 -61.04,-84.78 -72.67,-131.38 -11.36,-45.39 -12.92,-128.69 46.66,-142.07 6.24,-1.36 16.87,8.02 10.28,13.41 -19.27,15.99 -34.1,27.5 -41.54,52.56 -7.07,23.84 -4.67,49.9 -0.21,73.92 8.81,47.18 34.23,108.33 76.85,134.73 4.13,2.58 10.01,12.04 0.93,12.01"
         style="fill:#040606;fill-opacity:1;fill-rule:nonzero;stroke:none"
         transform="matrix(0.13333333,0,0,-0.13333333,0,382.14667)" />
      <path
         id="path13"
         d="m 1713.05,2212.17 c -15.92,31.94 -38.69,57.44 -49.99,92.19 -9.53,29.61 -7.85,58.41 5.36,83.86 8.19,8.41 15.08,17.8 19.82,28.35 3.62,8.08 -8.31,5.02 -11.27,2.28 -12.72,-11.65 -22.15,-24.71 -28.6,-38.89 -18.73,-14.33 -43.16,-24.29 -61.5,-30.94 -18.22,-6.61 -37.43,-10.63 -56.73,-11.54 -8.93,-0.48 -17.9,0.31 -26.65,2.07 -10.46,2.15 -18.82,3.24 -9.92,12.16 2.88,3 -1.44,4.56 -3.77,2.22 -2.67,-2.59 -5.31,-5.29 -8.01,-7.94 -0.84,-0.82 -1.43,-2.49 -0.2,-3.39 33.39,-23.36 80.41,-10.85 115.26,2.21 15.53,5.75 31.98,13.49 46.9,23.28 -5.63,-17.19 -7.18,-35.86 -4.94,-55.61 4.35,-39.1 28.15,-89.23 60.15,-113.04 6.47,-4.8 17.44,6.12 14.09,12.73"
         style="fill:#040606;fill-opacity:1;fill-rule:nonzero;stroke:none"
         transform="matrix(0.13333333,0,0,-0.13333333,0,382.14667)" />
      <path
         id="path14"
         d="m 2528.01,1503.63 c 4.26,0.85 12.68,12.08 4.49,12.71 -54.09,4.13 -196.24,22.69 -175.56,104.54 0.93,3.7 -4.29,2.02 -5.13,-0.35 -26.58,-77.28 81.92,-104.67 147.88,-114.11 -29.68,-14.58 -53.23,-42.02 -59.43,-75.19 -11.03,-59.2 27.87,-90.42 73.12,-119.13 7.65,-4.85 22.99,9.13 14.46,15.64 -30.46,23.19 -62.8,37.18 -70.4,78.65 -8.64,46.74 26.19,88.39 70.57,97.24"
         style="fill:#040606;fill-opacity:1;fill-rule:nonzero;stroke:none"
         transform="matrix(0.13333333,0,0,-0.13333333,0,382.14667)" />
      <path
         id="path15"
         d="m 2348.64,860.121 c -54.1,-31.391 -42.14,-92.301 -33.96,-145.312 -49.78,32.089 -112.99,48.961 -164.21,10.23 -5.06,-3.809 -1.05,-9.019 4.13,-5.457 54.19,37.84 120.58,4.957 165.56,-32.023 4.92,-4.149 15.71,4 15.29,9.589 -3.95,51.954 -27.36,111.172 19.24,150.133 7.71,6.508 4.83,19.098 -6.05,12.84"
         style="fill:#040606;fill-opacity:1;fill-rule:nonzero;stroke:none"
         transform="matrix(0.13333333,0,0,-0.13333333,0,382.14667)" />
      <path
         id="path16"
         d="m 1742.15,1415.52 c -0.5,1.2 -2.76,-0.09 -2.4,-1.25 26.1,-79.26 10.97,-158.27 -8.12,-236.86 -15.88,-65.6 -39.44,-124.2 -83.5,-175.31 -2,-1.49 -3.65,-3.159 -4.38,-4.631 -0.86,-1.821 -1.79,-3.688 -2.69,-5.508 -8.27,-17.441 18.37,-11.449 24.87,-5.129 15.32,14.938 24.01,39.608 31.65,59.148 16.79,43.08 30.75,86.85 41.21,131.88 17.78,76.8 37.46,162.17 3.36,237.66"
         style="fill:#040606;fill-opacity:1;fill-rule:nonzero;stroke:none"
         transform="matrix(0.13333333,0,0,-0.13333333,0,382.14667)" />
      <path
         id="path17"
         d="m 2276.98,1081.44 1.26,0.61 c 11.05,3.63 22.32,6.66 33.47,10.04 -7.31,12.26 -17.13,22.07 -28.2,32.48 -21.37,20.13 -37.58,43.57 -50.05,70.05 -26.26,55.4 -28.95,113.83 4.61,166.71 4.95,7.79 -0.68,15.2 -9.49,12.64 -90.22,-26.57 -176.83,-55.05 -272.26,-41.07 -40.25,5.89 -79.19,24.98 -111.01,49.8 -23.64,18.42 -29.25,54.05 -57.06,68.26 -8.81,4.51 -25.18,-11.72 -15.34,-16.74 27.95,-14.15 38.14,-53.07 63.17,-72.62 33.42,-26.14 76.31,-41.9 118,-48.04 85.14,-12.68 171.22,10 252.95,33.61 -22.66,-45.56 -24.16,-94.44 -7.44,-144.28 9.06,-26.99 24.55,-53.8 42.98,-75.36 8.19,-9.59 17.98,-18.05 27.06,-27.02 -26.76,-6.33 -56.61,-27.37 -72.79,-39.62 -47.74,-36.17 -89.01,-94.73 -81.55,-157.761 0.84,-7.219 1.82,-14.348 2.63,-21.508 0.45,-4.93 0.73,-9.859 0.6,-14.742 -0.09,-1.789 -0.15,-3.609 -0.29,-5.348 -0.78,-1.371 -1.39,-2.601 -1.68,-3.601 -12.41,11.558 -30.36,12.84 -47.18,18.539 -44.24,14.871 -88.77,11.07 -133.4,-0.649 -39.68,-10.461 -75.41,-31.23 -105.11,-59.371 -29.73,-28.179 -46.63,-68.578 -65.66,-105.609 -16.31,67.672 -30.97,138.89 -87.22,185.269 -56.22,46.45 -128.03,53.68 -196.28,40.821 65.76,34.558 116.32,90.4 156.87,155.22 58.29,93.16 102.5,195.64 90.24,306.8 -0.87,7.66 -15.58,0.11 -15.34,-6.02 3.2,-102.99 -33.72,-197.1 -83.23,-285.74 -40.76,-73.14 -96.87,-144.92 -175.9,-176.518 -11.36,-3.012 -22.68,-6.57 -33.62,-10.524 -4.2,-1.558 -7.23,-9.636 -0.61,-7.769 83.02,26.301 180.94,17.48 245.88,-44.09 51.52,-48.82 60.36,-127.098 77.21,-192.391 1.11,-4.289 5.21,-5.609 9.23,-5.609 8.06,0.082 16.25,6.121 19.54,13.152 10.28,21.61 16.78,44.399 25.98,66.399 20.95,50.039 56.35,84.211 105.83,105.832 42.8,18.726 97.2,26.598 142.51,13.539 17.66,-5.082 47.24,-11.539 56.74,-27.609 4.41,-7.442 15.85,-8.493 22.44,-2.602 20.92,18.672 13.94,49.84 10.94,74.699 -4.1,34.321 14.99,79.141 37.47,104.391 12.56,14.13 71.98,65.89 103.1,63.35"
         style="fill:#040606;fill-opacity:1;fill-rule:nonzero;stroke:none"
         transform="matrix(0.13333333,0,0,-0.13333333,0,382.14667)" />
      <path
         id="path18"
         d="m 2091.1,1175.9 c -19.72,18.45 -48.14,20.41 -73.63,25.45 -33.19,6.56 -60.67,18.09 -88.36,37.64 -19.6,13.93 -37.55,29.84 -54.85,46.72 8.48,-6.03 17.17,-11.86 26.11,-17.2 46.6,-27.82 102.47,-42.5 153.57,-59.7 10.52,-3.56 30.71,17.98 17.89,23.42 -50.38,21.13 -106.45,16.9 -156.33,41.87 -42.26,21.16 -76.93,53.54 -111.22,85.64 -6.33,6.7 -12.74,13.42 -19.28,19.93 l -0.98,-0.76 c 1.62,-1.95 3.27,-3.87 4.88,-5.8 l -0.62,-0.2 c -3.28,4.05 -6.6,8.05 -10.01,11.97 -3.72,7.92 -7.56,15.83 -11.66,23.49 -0.93,1.69 -4.55,-0.86 -3.9,-2.41 l 1.08,-2.6 -0.33,-0.67 v -1.56 c -2.04,2.11 -4.01,4.24 -6.02,6.31 l -1.2,-0.87 c 2.43,-3.02 4.79,-6.1 7.22,-9.05 0,-36.04 5.64,-70.67 11.54,-106.22 7.76,-46.41 8.27,-90.82 7.61,-137.58 -0.63,-47.92 -8.99,-95.83 -22.3,-141.67 -4.83,-16.589 -7.81,-33.55 -11.78,-50.261 -4.01,-16.398 -12.79,-32.219 -14.98,-48.777 -1.53,-11.762 15.05,-5.274 19,-1.192 21.16,22.289 23.23,61.602 27.85,90.61 7.31,45.39 12.31,90.37 13.15,136.41 0.87,44.74 2.85,87.95 -3.65,132.43 -5.97,40.4 -15.35,80.29 -21.95,120.54 l 1.15,-1.38 c 14.08,-35.04 27,-70.45 42.19,-105.18 17.39,-39.82 40.26,-79.83 49.54,-122.55 9.42,-43.47 10.32,-88.15 13.91,-132.29 2.7,-32.941 -8.46,-73.691 8.16,-103.719 6.28,-11.41 29.33,5.399 26.04,16.188 -9.92,32.281 -5.31,66.031 -11.57,98.891 -8.06,42 -16.57,84.31 -26.8,125.75 -10.49,42.24 -33.56,82.29 -51.67,121.61 -12.04,26.19 -22.11,53.62 -33.65,80.19 42.92,-57.44 80.05,-119.46 114.39,-182.07 19.31,-35.12 43.04,-65.4 70.35,-94.45 20.65,-22.01 47.32,-55.69 80.14,-55.77 5.55,-0.05 20.29,10.86 13.33,17.25 -9.26,8.52 -20.16,14.74 -30.29,22.26 -15.41,11.52 -29.1,25.59 -42.83,39.08 -28.77,28.34 -54.43,58.27 -78.2,90.93 -23.88,32.79 -49.42,64.22 -72.89,97.31 -7.49,10.62 -14.95,21.24 -22.54,31.67 4.48,-4.67 9.14,-9.18 13.76,-13.59 23.83,-29.61 48.2,-58.82 77.05,-84.27 22.15,-19.54 46.79,-35.09 75.11,-43.61 31.54,-9.5 55.9,-16.53 80.96,-38.87 11.62,-10.21 38.39,10.59 27.51,20.71"
         style="fill:#040606;fill-opacity:1;fill-rule:nonzero;stroke:none"
         transform="matrix(0.13333333,0,0,-0.13333333,0,382.14667)" />
      <path
         id="path19"
         d="m 480.406,1526.94 c -39.687,-50.1 -98.984,-17.52 -143.613,5.99 -37.531,19.77 -116.789,40.37 -116.719,-28.5 0.02,-6.45 9.961,-1.58 10.352,2.99 5.664,60.79 79.004,15.24 102.558,-6.7 32.032,-29.73 49.59,-70.51 63.868,-110.88 29.043,-82.32 52.226,-185.88 9.609,-267.6 -0.684,-1.34 1.074,-1.21 1.66,-0.36 63.875,98.85 44.219,227.23 -5.625,328.51 -6.113,12.29 -13.457,24.91 -22.101,36.96 12.734,-3.25 26.144,-4.28 36.574,-3.78 28.699,1.2 52.781,18.39 68.113,41.58 2.297,3.52 -2.832,4.11 -4.676,1.79"
         style="fill:#040606;fill-opacity:1;fill-rule:nonzero;stroke:none"
         transform="matrix(0.13333333,0,0,-0.13333333,0,382.14667)" />
      <path
         id="path20"
         d="m 305.434,1266.65 c -1.739,-7.43 -4.012,-14.86 -7.176,-21.83 -3.106,14.64 -4.211,27.89 -0.078,44.12 2.773,10.6 7.449,20.67 12.968,30.16 l 0.028,-1.62 c 0.254,-16.9 -2.071,-34.27 -5.742,-50.83 z m 21.582,84.39 c -3.426,17.89 -8.243,34.7 -16.375,51.02 -8.106,16.11 -27.598,27.76 -31.133,45.9 -0.567,2.91 -5.813,0.06 -5.684,-2.27 1.133,-22.47 17.012,-38.67 25.047,-59.3 5.988,-15.45 9.738,-33.89 11.379,-51.47 -17.949,-26.25 -39.043,-69.05 -23.848,-100.45 -1.484,-0.25 -3.164,-0.5 -5.109,-1.16 -5.965,-1.98 -12.84,-8.29 -9.461,-14.99 7.606,-15.13 31.25,1.97 37.859,9.69 13.821,16.45 17.454,40.68 19.961,61.19 2.629,21.18 1.321,41.07 -2.636,61.84"
         style="fill:#040606;fill-opacity:1;fill-rule:nonzero;stroke:none"
         transform="matrix(0.13333333,0,0,-0.13333333,0,382.14667)" />
      <path
         id="path21"
         d="m 1309.92,1972.57 c -27.91,-5.88 -57.07,20.13 -65.1,58.18 -4.26,19.88 -1.78,39.06 5.39,53.79 -9.26,3.3 -19,5.12 -29.04,5.12 -62.58,0 -113.28,-69.3 -113.28,-154.73 0,-85.46 50.7,-154.7 113.28,-154.7 62.63,0 113.38,69.24 113.38,154.7 0,16.7 -1.98,32.79 -5.55,47.85 -5.45,-5.07 -11.84,-8.69 -19.08,-10.21"
         style="fill:#040606;fill-opacity:1;fill-rule:nonzero;stroke:none"
         transform="matrix(0.13333333,0,0,-0.13333333,0,382.14667)" />
      <path
         id="path22"
         d="m 697.555,2050.54 c 0,16.35 5.066,31.07 13.164,41.46 -6.75,4.14 -14.102,7.13 -22.031,8.81 -49.258,10.35 -100.665,-35.8 -114.766,-103.06 -14.121,-67.28 14.375,-130.25 63.652,-140.52 49.336,-10.36 100.653,35.8 114.813,103.04 2.765,13.14 3.84,26.15 3.547,38.55 -5.098,-3.09 -10.801,-4.84 -16.739,-4.84 -22.922,-0.01 -41.593,25.27 -41.64,56.56"
         style="fill:#040606;fill-opacity:1;fill-rule:nonzero;stroke:none"
         transform="matrix(0.13333333,0,0,-0.13333333,0,382.14667)" />
    </g>
  </g>
</svg>
